# xmcd
#
# Track frame offsets: 
#        150
#        19582
#        64582
#        89542
#        115145
#        135630
#        147907
#        166560
#        190660
#        217287
#        256862
#
# Disc length: 3613 seconds
#
# Revision: 2
# Processed by: cddbd v1.4b42PL1 Copyright (c) Steve Scherf et al.
# Submitted via: ExactAudioCopy v0.90a11
#
DISCID=940e1b0b
DTITLE=Butch Hancock - Own the Way Over Here
DYEAR=1900
DGENRE=
TTITLE0=Talkin' About That Panama Canal
TTITLE1=Only Born
TTITLE2=Smokin' in the Rain
TTITLE3=Corona Del Mar
TTITLE4=Like the Light at Dawn
TTITLE5=Gift Horse of Mercy
TTITLE6=Neon Wind
TTITLE7=Perfection in the Mud
TTITLE8=Only Makes Me Love You More
TTITLE9=Already Gone
TTITLE10=Away From the Mountain
EXTD=
EXTT0=
EXTT1=
EXTT2=
EXTT3=
EXTT4=
EXTT5=
EXTT6=
EXTT7=
EXTT8=
EXTT9=
EXTT10=
PLAYORDER=
